G04 #@! TF.GenerationSoftware,KiCad,Pcbnew,(2018-01-23 revision c95c77c51)-master*
G04 #@! TF.CreationDate,2018-01-29T11:30:05+01:00*
G04 #@! TF.ProjectId,rpi_mrf_radio_shield,7270695F6D72665F726164696F5F7368,rev?*
G04 #@! TF.SameCoordinates,Original*
G04 #@! TF.FileFunction,Soldermask,Top*
G04 #@! TF.FilePolarity,Negative*
%FSLAX46Y46*%
G04 Gerber Fmt 4.6, Leading zero omitted, Abs format (unit mm)*
G04 Created by KiCad (PCBNEW (2018-01-23 revision c95c77c51)-master) date Mon Jan 29 11:30:05 2018*
%MOMM*%
%LPD*%
G01*
G04 APERTURE LIST*
%ADD10R,1.801600X1.801600*%
%ADD11O,1.801600X1.801600*%
%ADD12R,1.321600X0.751600*%
%ADD13R,1.601600X1.401600*%
%ADD14R,1.401600X1.601600*%
G04 APERTURE END LIST*
D10*
X162001100Y-136113600D03*
D11*
X164541100Y-136113600D03*
X167081100Y-136113600D03*
X169621100Y-136113600D03*
X172161100Y-136113600D03*
X174701100Y-136113600D03*
D10*
X146176900Y-115793600D03*
D11*
X146176900Y-118333600D03*
X146176900Y-120873600D03*
X146176900Y-123413600D03*
X146176900Y-125953600D03*
X146176900Y-128493600D03*
X163956900Y-115793600D03*
X163956900Y-118333600D03*
X163956900Y-120873600D03*
X163956900Y-123413600D03*
X163956900Y-125953600D03*
D10*
X163956900Y-128493600D03*
D12*
X154040100Y-133126600D03*
X154040100Y-131226600D03*
X151420100Y-132176600D03*
D13*
X159715100Y-131160600D03*
X157015100Y-131160600D03*
D11*
X159969100Y-94076600D03*
D10*
X159969100Y-91536600D03*
D13*
X155524100Y-93822600D03*
X152824100Y-93822600D03*
X155524100Y-90647600D03*
X152824100Y-90647600D03*
X157015100Y-133192600D03*
X159715100Y-133192600D03*
D14*
X150571100Y-91710600D03*
X150571100Y-94410600D03*
X147015100Y-94410600D03*
X147015100Y-91710600D03*
D10*
X139141100Y-136113600D03*
D11*
X141681100Y-136113600D03*
X144221100Y-136113600D03*
X146761100Y-136113600D03*
X149301100Y-136113600D03*
X151841100Y-136113600D03*
X154381100Y-136113600D03*
X156921100Y-136113600D03*
D10*
X153111100Y-87853600D03*
D11*
X150571100Y-87853600D03*
X148031100Y-87853600D03*
X145491100Y-87853600D03*
X142951100Y-87853600D03*
X140411100Y-87853600D03*
X137871100Y-87853600D03*
X135331100Y-87853600D03*
X132791100Y-87853600D03*
X130251100Y-87853600D03*
D10*
X174701100Y-87853600D03*
D11*
X172161100Y-87853600D03*
X169621100Y-87853600D03*
X167081100Y-87853600D03*
X164541100Y-87853600D03*
X162001100Y-87853600D03*
X159461100Y-87853600D03*
X156921100Y-87853600D03*
D10*
X148729600Y-100299600D03*
D11*
X148729600Y-97759600D03*
X151269600Y-100299600D03*
X151269600Y-97759600D03*
X153809600Y-100299600D03*
X153809600Y-97759600D03*
X156349600Y-100299600D03*
X156349600Y-97759600D03*
X158889600Y-100299600D03*
X158889600Y-97759600D03*
X161429600Y-100299600D03*
X161429600Y-97759600D03*
X163829900Y-94076600D03*
D10*
X163829900Y-91536600D03*
D13*
X149148700Y-133218000D03*
X146448700Y-133218000D03*
M02*
