G04 #@! TF.GenerationSoftware,KiCad,Pcbnew,(2018-01-23 revision c95c77c51)-master*
G04 #@! TF.CreationDate,2018-01-29T11:30:05+01:00*
G04 #@! TF.ProjectId,rpi_mrf_radio_shield,7270695F6D72665F726164696F5F7368,rev?*
G04 #@! TF.SameCoordinates,Original*
G04 #@! TF.FileFunction,Legend,Top*
G04 #@! TF.FilePolarity,Positive*
%FSLAX46Y46*%
G04 Gerber Fmt 4.6, Leading zero omitted, Abs format (unit mm)*
G04 Created by KiCad (PCBNEW (2018-01-23 revision c95c77c51)-master) date Mon Jan 29 11:30:05 2018*
%MOMM*%
%LPD*%
G01*
G04 APERTURE LIST*
%ADD10C,0.300000*%
%ADD11C,0.200000*%
%ADD12C,0.120000*%
%ADD13C,0.150000*%
G04 APERTURE END LIST*
D10*
X148263985Y-104153171D02*
X148263985Y-103153171D01*
X148263985Y-103438885D02*
X148335414Y-103296028D01*
X148406842Y-103224600D01*
X148549700Y-103153171D01*
X148692557Y-103153171D01*
X149192557Y-103153171D02*
X149192557Y-104653171D01*
X149192557Y-103224600D02*
X149335414Y-103153171D01*
X149621128Y-103153171D01*
X149763985Y-103224600D01*
X149835414Y-103296028D01*
X149906842Y-103438885D01*
X149906842Y-103867457D01*
X149835414Y-104010314D01*
X149763985Y-104081742D01*
X149621128Y-104153171D01*
X149335414Y-104153171D01*
X149192557Y-104081742D01*
X150549700Y-104153171D02*
X150549700Y-103153171D01*
X150549700Y-102653171D02*
X150478271Y-102724600D01*
X150549700Y-102796028D01*
X150621128Y-102724600D01*
X150549700Y-102653171D01*
X150549700Y-102796028D01*
X151478271Y-103296028D02*
X151335414Y-103224600D01*
X151263985Y-103153171D01*
X151192557Y-103010314D01*
X151192557Y-102938885D01*
X151263985Y-102796028D01*
X151335414Y-102724600D01*
X151478271Y-102653171D01*
X151763985Y-102653171D01*
X151906842Y-102724600D01*
X151978271Y-102796028D01*
X152049700Y-102938885D01*
X152049700Y-103010314D01*
X151978271Y-103153171D01*
X151906842Y-103224600D01*
X151763985Y-103296028D01*
X151478271Y-103296028D01*
X151335414Y-103367457D01*
X151263985Y-103438885D01*
X151192557Y-103581742D01*
X151192557Y-103867457D01*
X151263985Y-104010314D01*
X151335414Y-104081742D01*
X151478271Y-104153171D01*
X151763985Y-104153171D01*
X151906842Y-104081742D01*
X151978271Y-104010314D01*
X152049700Y-103867457D01*
X152049700Y-103581742D01*
X151978271Y-103438885D01*
X151906842Y-103367457D01*
X151763985Y-103296028D01*
X152978271Y-102653171D02*
X153121128Y-102653171D01*
X153263985Y-102724600D01*
X153335414Y-102796028D01*
X153406842Y-102938885D01*
X153478271Y-103224600D01*
X153478271Y-103581742D01*
X153406842Y-103867457D01*
X153335414Y-104010314D01*
X153263985Y-104081742D01*
X153121128Y-104153171D01*
X152978271Y-104153171D01*
X152835414Y-104081742D01*
X152763985Y-104010314D01*
X152692557Y-103867457D01*
X152621128Y-103581742D01*
X152621128Y-103224600D01*
X152692557Y-102938885D01*
X152763985Y-102796028D01*
X152835414Y-102724600D01*
X152978271Y-102653171D01*
X154049700Y-102796028D02*
X154121128Y-102724600D01*
X154263985Y-102653171D01*
X154621128Y-102653171D01*
X154763985Y-102724600D01*
X154835414Y-102796028D01*
X154906842Y-102938885D01*
X154906842Y-103081742D01*
X154835414Y-103296028D01*
X153978271Y-104153171D01*
X154906842Y-104153171D01*
X156335414Y-104153171D02*
X155478271Y-104153171D01*
X155906842Y-104153171D02*
X155906842Y-102653171D01*
X155763985Y-102867457D01*
X155621128Y-103010314D01*
X155478271Y-103081742D01*
X157692557Y-102653171D02*
X156978271Y-102653171D01*
X156906842Y-103367457D01*
X156978271Y-103296028D01*
X157121128Y-103224600D01*
X157478271Y-103224600D01*
X157621128Y-103296028D01*
X157692557Y-103367457D01*
X157763985Y-103510314D01*
X157763985Y-103867457D01*
X157692557Y-104010314D01*
X157621128Y-104081742D01*
X157478271Y-104153171D01*
X157121128Y-104153171D01*
X156978271Y-104081742D01*
X156906842Y-104010314D01*
X159049700Y-103153171D02*
X159049700Y-104153171D01*
X158692557Y-102581742D02*
X158335414Y-103653171D01*
X159263985Y-103653171D01*
X159835414Y-103581742D02*
X160978271Y-103581742D01*
X161692557Y-104153171D02*
X161692557Y-103153171D01*
X161692557Y-103438885D02*
X161763985Y-103296028D01*
X161835414Y-103224600D01*
X161978271Y-103153171D01*
X162121128Y-103153171D01*
X163406842Y-104153171D02*
X162549700Y-104153171D01*
X162978271Y-104153171D02*
X162978271Y-102653171D01*
X162835414Y-102867457D01*
X162692557Y-103010314D01*
X162549700Y-103081742D01*
X150122671Y-129680171D02*
X150122671Y-128180171D01*
X150622671Y-129251600D01*
X151122671Y-128180171D01*
X151122671Y-129680171D01*
X152694100Y-129680171D02*
X152194100Y-128965885D01*
X151836957Y-129680171D02*
X151836957Y-128180171D01*
X152408385Y-128180171D01*
X152551242Y-128251600D01*
X152622671Y-128323028D01*
X152694100Y-128465885D01*
X152694100Y-128680171D01*
X152622671Y-128823028D01*
X152551242Y-128894457D01*
X152408385Y-128965885D01*
X151836957Y-128965885D01*
X153836957Y-128894457D02*
X153336957Y-128894457D01*
X153336957Y-129680171D02*
X153336957Y-128180171D01*
X154051242Y-128180171D01*
X154551242Y-128323028D02*
X154622671Y-128251600D01*
X154765528Y-128180171D01*
X155122671Y-128180171D01*
X155265528Y-128251600D01*
X155336957Y-128323028D01*
X155408385Y-128465885D01*
X155408385Y-128608742D01*
X155336957Y-128823028D01*
X154479814Y-129680171D01*
X155408385Y-129680171D01*
X156694100Y-128680171D02*
X156694100Y-129680171D01*
X156336957Y-128108742D02*
X155979814Y-129180171D01*
X156908385Y-129180171D01*
X157908385Y-128180171D02*
X157908385Y-129251600D01*
X157836957Y-129465885D01*
X157694100Y-129608742D01*
X157479814Y-129680171D01*
X157336957Y-129680171D01*
X159265528Y-128680171D02*
X159265528Y-129680171D01*
X158908385Y-128108742D02*
X158551242Y-129180171D01*
X159479814Y-129180171D01*
X160336957Y-128180171D02*
X160479814Y-128180171D01*
X160622671Y-128251600D01*
X160694100Y-128323028D01*
X160765528Y-128465885D01*
X160836957Y-128751600D01*
X160836957Y-129108742D01*
X160765528Y-129394457D01*
X160694100Y-129537314D01*
X160622671Y-129608742D01*
X160479814Y-129680171D01*
X160336957Y-129680171D01*
X160194100Y-129608742D01*
X160122671Y-129537314D01*
X160051242Y-129394457D01*
X159979814Y-129108742D01*
X159979814Y-128751600D01*
X160051242Y-128465885D01*
X160122671Y-128323028D01*
X160194100Y-128251600D01*
X160336957Y-128180171D01*
D11*
X146176900Y-113761600D02*
X146176900Y-114269600D01*
X147319900Y-113761600D02*
X147319900Y-114269600D01*
X164337900Y-96362600D02*
X164337900Y-114269600D01*
X147573900Y-126461600D02*
X162559900Y-126461600D01*
X147319900Y-96362600D02*
X147319900Y-113761600D01*
X147332600Y-96362600D02*
X164350600Y-96362600D01*
X146176900Y-101823600D02*
X146176900Y-113761600D01*
X163956900Y-101823600D02*
X146176900Y-101823600D01*
X163956900Y-114269600D02*
X163956900Y-101823600D01*
X146176900Y-130017600D02*
X163956900Y-130017600D01*
D12*
X144846900Y-129823600D02*
X147506900Y-129823600D01*
X144846900Y-117063600D02*
X144846900Y-129823600D01*
X147506900Y-117063600D02*
X147506900Y-129823600D01*
X144846900Y-117063600D02*
X147506900Y-117063600D01*
X144846900Y-115793600D02*
X144846900Y-114463600D01*
X144846900Y-114463600D02*
X146176900Y-114463600D01*
X165286900Y-129823600D02*
X163956900Y-129823600D01*
X165286900Y-128493600D02*
X165286900Y-129823600D01*
X165286900Y-127223600D02*
X162626900Y-127223600D01*
X162626900Y-127223600D02*
X162626900Y-114463600D01*
X165286900Y-127223600D02*
X165286900Y-114463600D01*
X165286900Y-114463600D02*
X162626900Y-114463600D01*
X151780100Y-131676600D02*
X151780100Y-130626600D01*
X151780100Y-130626600D02*
X153630100Y-130626600D01*
X151780100Y-133676600D02*
X151780100Y-132676600D01*
X151800100Y-133686600D02*
X154230100Y-133686600D01*
X157765100Y-130280600D02*
X158965100Y-130280600D01*
X158965100Y-132040600D02*
X157765100Y-132040600D01*
X158639100Y-90206600D02*
X159969100Y-90206600D01*
X158639100Y-91536600D02*
X158639100Y-90206600D01*
X158639100Y-92806600D02*
X161299100Y-92806600D01*
X161299100Y-92806600D02*
X161299100Y-95406600D01*
X158639100Y-92806600D02*
X158639100Y-95406600D01*
X158639100Y-95406600D02*
X161299100Y-95406600D01*
X153574100Y-92942600D02*
X154774100Y-92942600D01*
X154774100Y-94702600D02*
X153574100Y-94702600D01*
X153574100Y-89767600D02*
X154774100Y-89767600D01*
X154774100Y-91527600D02*
X153574100Y-91527600D01*
X158965100Y-134072600D02*
X157765100Y-134072600D01*
X157765100Y-132312600D02*
X158965100Y-132312600D01*
X149821100Y-94060600D02*
X149821100Y-90860600D01*
X151321100Y-90860600D02*
X151321100Y-94060600D01*
X151321100Y-90860600D02*
X149821100Y-90860600D01*
X147765100Y-90860600D02*
X146265100Y-90860600D01*
X147765100Y-90860600D02*
X147765100Y-94060600D01*
X146265100Y-94060600D02*
X146265100Y-90860600D01*
X162759600Y-101629600D02*
X162759600Y-96429600D01*
X149999600Y-101629600D02*
X162759600Y-101629600D01*
X147399600Y-96429600D02*
X162759600Y-96429600D01*
X149999600Y-101629600D02*
X149999600Y-99029600D01*
X149999600Y-99029600D02*
X147399600Y-99029600D01*
X147399600Y-99029600D02*
X147399600Y-96429600D01*
X148729600Y-101629600D02*
X147399600Y-101629600D01*
X147399600Y-101629600D02*
X147399600Y-100299600D01*
X162499900Y-90206600D02*
X163829900Y-90206600D01*
X162499900Y-91536600D02*
X162499900Y-90206600D01*
X162499900Y-92806600D02*
X165159900Y-92806600D01*
X165159900Y-92806600D02*
X165159900Y-95406600D01*
X162499900Y-92806600D02*
X162499900Y-95406600D01*
X162499900Y-95406600D02*
X165159900Y-95406600D01*
X147198700Y-132338000D02*
X148398700Y-132338000D01*
X148398700Y-134098000D02*
X147198700Y-134098000D01*
D13*
X148296280Y-122476933D02*
X149010566Y-122476933D01*
X149153423Y-122524552D01*
X149248661Y-122619790D01*
X149296280Y-122762647D01*
X149296280Y-122857885D01*
X149296280Y-121476933D02*
X149296280Y-122048361D01*
X149296280Y-121762647D02*
X148296280Y-121762647D01*
X148439138Y-121857885D01*
X148534376Y-121953123D01*
X148581995Y-122048361D01*
X160869280Y-122476933D02*
X161583566Y-122476933D01*
X161726423Y-122524552D01*
X161821661Y-122619790D01*
X161869280Y-122762647D01*
X161869280Y-122857885D01*
X160964519Y-122048361D02*
X160916900Y-122000742D01*
X160869280Y-121905504D01*
X160869280Y-121667409D01*
X160916900Y-121572171D01*
X160964519Y-121524552D01*
X161059757Y-121476933D01*
X161154995Y-121476933D01*
X161297852Y-121524552D01*
X161869280Y-122095980D01*
X161869280Y-121476933D01*
X150327519Y-131306638D02*
X150279900Y-131401876D01*
X150184661Y-131497114D01*
X150041804Y-131639971D01*
X149994185Y-131735209D01*
X149994185Y-131830447D01*
X150232280Y-131782828D02*
X150184661Y-131878066D01*
X150089423Y-131973304D01*
X149898947Y-132020923D01*
X149565614Y-132020923D01*
X149375138Y-131973304D01*
X149279900Y-131878066D01*
X149232280Y-131782828D01*
X149232280Y-131592352D01*
X149279900Y-131497114D01*
X149375138Y-131401876D01*
X149565614Y-131354257D01*
X149898947Y-131354257D01*
X150089423Y-131401876D01*
X150184661Y-131497114D01*
X150232280Y-131592352D01*
X150232280Y-131782828D01*
X150232280Y-130401876D02*
X150232280Y-130973304D01*
X150232280Y-130687590D02*
X149232280Y-130687590D01*
X149375138Y-130782828D01*
X149470376Y-130878066D01*
X149517995Y-130973304D01*
X161627433Y-131612980D02*
X161294100Y-131136790D01*
X161056004Y-131612980D02*
X161056004Y-130612980D01*
X161436957Y-130612980D01*
X161532195Y-130660600D01*
X161579814Y-130708219D01*
X161627433Y-130803457D01*
X161627433Y-130946314D01*
X161579814Y-131041552D01*
X161532195Y-131089171D01*
X161436957Y-131136790D01*
X161056004Y-131136790D01*
X162484576Y-130946314D02*
X162484576Y-131612980D01*
X162246480Y-130565361D02*
X162008385Y-131279647D01*
X162627433Y-131279647D01*
X156953880Y-93538333D02*
X157668166Y-93538333D01*
X157811023Y-93585952D01*
X157906261Y-93681190D01*
X157953880Y-93824047D01*
X157953880Y-93919285D01*
X157953880Y-93062142D02*
X156953880Y-93062142D01*
X156953880Y-92681190D01*
X157001500Y-92585952D01*
X157049119Y-92538333D01*
X157144357Y-92490714D01*
X157287214Y-92490714D01*
X157382452Y-92538333D01*
X157430071Y-92585952D01*
X157477690Y-92681190D01*
X157477690Y-93062142D01*
X157049119Y-92109761D02*
X157001500Y-92062142D01*
X156953880Y-91966904D01*
X156953880Y-91728809D01*
X157001500Y-91633571D01*
X157049119Y-91585952D01*
X157144357Y-91538333D01*
X157239595Y-91538333D01*
X157382452Y-91585952D01*
X157953880Y-92157380D01*
X157953880Y-91538333D01*
X154007433Y-95925980D02*
X153674100Y-95449790D01*
X153436004Y-95925980D02*
X153436004Y-94925980D01*
X153816957Y-94925980D01*
X153912195Y-94973600D01*
X153959814Y-95021219D01*
X154007433Y-95116457D01*
X154007433Y-95259314D01*
X153959814Y-95354552D01*
X153912195Y-95402171D01*
X153816957Y-95449790D01*
X153436004Y-95449790D01*
X154959814Y-95925980D02*
X154388385Y-95925980D01*
X154674100Y-95925980D02*
X154674100Y-94925980D01*
X154578861Y-95068838D01*
X154483623Y-95164076D01*
X154388385Y-95211695D01*
X154007433Y-92750980D02*
X153674100Y-92274790D01*
X153436004Y-92750980D02*
X153436004Y-91750980D01*
X153816957Y-91750980D01*
X153912195Y-91798600D01*
X153959814Y-91846219D01*
X154007433Y-91941457D01*
X154007433Y-92084314D01*
X153959814Y-92179552D01*
X153912195Y-92227171D01*
X153816957Y-92274790D01*
X153436004Y-92274790D01*
X154388385Y-91846219D02*
X154436004Y-91798600D01*
X154531242Y-91750980D01*
X154769338Y-91750980D01*
X154864576Y-91798600D01*
X154912195Y-91846219D01*
X154959814Y-91941457D01*
X154959814Y-92036695D01*
X154912195Y-92179552D01*
X154340766Y-92750980D01*
X154959814Y-92750980D01*
X161627433Y-133644980D02*
X161294100Y-133168790D01*
X161056004Y-133644980D02*
X161056004Y-132644980D01*
X161436957Y-132644980D01*
X161532195Y-132692600D01*
X161579814Y-132740219D01*
X161627433Y-132835457D01*
X161627433Y-132978314D01*
X161579814Y-133073552D01*
X161532195Y-133121171D01*
X161436957Y-133168790D01*
X161056004Y-133168790D01*
X161960766Y-132644980D02*
X162579814Y-132644980D01*
X162246480Y-133025933D01*
X162389338Y-133025933D01*
X162484576Y-133073552D01*
X162532195Y-133121171D01*
X162579814Y-133216409D01*
X162579814Y-133454504D01*
X162532195Y-133549742D01*
X162484576Y-133597361D01*
X162389338Y-133644980D01*
X162103623Y-133644980D01*
X162008385Y-133597361D01*
X161960766Y-133549742D01*
X149245480Y-95362171D02*
X148245480Y-95362171D01*
X148245480Y-95124076D01*
X148293100Y-94981219D01*
X148388338Y-94885980D01*
X148483576Y-94838361D01*
X148674052Y-94790742D01*
X148816909Y-94790742D01*
X149007385Y-94838361D01*
X149102623Y-94885980D01*
X149197861Y-94981219D01*
X149245480Y-95124076D01*
X149245480Y-95362171D01*
X149340719Y-94600266D02*
X149340719Y-93838361D01*
X148959766Y-93647885D02*
X148959766Y-93171695D01*
X149245480Y-93743123D02*
X148245480Y-93409790D01*
X149245480Y-93076457D01*
X149150242Y-92171695D02*
X149197861Y-92219314D01*
X149245480Y-92362171D01*
X149245480Y-92457409D01*
X149197861Y-92600266D01*
X149102623Y-92695504D01*
X149007385Y-92743123D01*
X148816909Y-92790742D01*
X148674052Y-92790742D01*
X148483576Y-92743123D01*
X148388338Y-92695504D01*
X148293100Y-92600266D01*
X148245480Y-92457409D01*
X148245480Y-92362171D01*
X148293100Y-92219314D01*
X148340719Y-92171695D01*
X148245480Y-91885980D02*
X148245480Y-91314552D01*
X149245480Y-91600266D02*
X148245480Y-91600266D01*
X149245480Y-90457409D02*
X149245480Y-91028838D01*
X149245480Y-90743123D02*
X148245480Y-90743123D01*
X148388338Y-90838361D01*
X148483576Y-90933600D01*
X148531195Y-91028838D01*
X145689480Y-95370076D02*
X144689480Y-95370076D01*
X144689480Y-95131980D01*
X144737100Y-94989123D01*
X144832338Y-94893885D01*
X144927576Y-94846266D01*
X145118052Y-94798647D01*
X145260909Y-94798647D01*
X145451385Y-94846266D01*
X145546623Y-94893885D01*
X145641861Y-94989123D01*
X145689480Y-95131980D01*
X145689480Y-95370076D01*
X145784719Y-94608171D02*
X145784719Y-93846266D01*
X145689480Y-93608171D02*
X144689480Y-93608171D01*
X144689480Y-93227219D01*
X144737100Y-93131980D01*
X144784719Y-93084361D01*
X144879957Y-93036742D01*
X145022814Y-93036742D01*
X145118052Y-93084361D01*
X145165671Y-93131980D01*
X145213290Y-93227219D01*
X145213290Y-93608171D01*
X144689480Y-92703409D02*
X145689480Y-92465314D01*
X144975195Y-92274838D01*
X145689480Y-92084361D01*
X144689480Y-91846266D01*
X145689480Y-90893885D02*
X145213290Y-91227219D01*
X145689480Y-91465314D02*
X144689480Y-91465314D01*
X144689480Y-91084361D01*
X144737100Y-90989123D01*
X144784719Y-90941504D01*
X144879957Y-90893885D01*
X145022814Y-90893885D01*
X145118052Y-90941504D01*
X145165671Y-90989123D01*
X145213290Y-91084361D01*
X145213290Y-91465314D01*
X145689480Y-89941504D02*
X145689480Y-90512933D01*
X145689480Y-90227219D02*
X144689480Y-90227219D01*
X144832338Y-90322457D01*
X144927576Y-90417695D01*
X144975195Y-90512933D01*
X163049880Y-99388333D02*
X163764166Y-99388333D01*
X163907023Y-99435952D01*
X164002261Y-99531190D01*
X164049880Y-99674047D01*
X164049880Y-99769285D01*
X163049880Y-99007380D02*
X163049880Y-98340714D01*
X164049880Y-98769285D01*
X164675480Y-98084933D02*
X165389766Y-98084933D01*
X165532623Y-98132552D01*
X165627861Y-98227790D01*
X165675480Y-98370647D01*
X165675480Y-98465885D01*
X165675480Y-97608742D02*
X164675480Y-97608742D01*
X164675480Y-97227790D01*
X164723100Y-97132552D01*
X164770719Y-97084933D01*
X164865957Y-97037314D01*
X165008814Y-97037314D01*
X165104052Y-97084933D01*
X165151671Y-97132552D01*
X165199290Y-97227790D01*
X165199290Y-97608742D01*
X165675480Y-96084933D02*
X165675480Y-96656361D01*
X165675480Y-96370647D02*
X164675480Y-96370647D01*
X164818338Y-96465885D01*
X164913576Y-96561123D01*
X164961195Y-96656361D01*
X144203033Y-134000580D02*
X143869700Y-133524390D01*
X143631604Y-134000580D02*
X143631604Y-133000580D01*
X144012557Y-133000580D01*
X144107795Y-133048200D01*
X144155414Y-133095819D01*
X144203033Y-133191057D01*
X144203033Y-133333914D01*
X144155414Y-133429152D01*
X144107795Y-133476771D01*
X144012557Y-133524390D01*
X143631604Y-133524390D01*
X145107795Y-133000580D02*
X144631604Y-133000580D01*
X144583985Y-133476771D01*
X144631604Y-133429152D01*
X144726842Y-133381533D01*
X144964938Y-133381533D01*
X145060176Y-133429152D01*
X145107795Y-133476771D01*
X145155414Y-133572009D01*
X145155414Y-133810104D01*
X145107795Y-133905342D01*
X145060176Y-133952961D01*
X144964938Y-134000580D01*
X144726842Y-134000580D01*
X144631604Y-133952961D01*
X144583985Y-133905342D01*
M02*
