M48
;DRILL file {KiCad (2018-01-23 revision c95c77c51)-master} date Mon Jan 29 11:30:10 2018
;FORMAT={-:-/ absolute / inch / decimal}
FMAT,2
INCH,TZ
T1C0.0130
T2C0.0157
T3C0.0394
%
G90
G05
M72
T1
X5.745Y-4.1788
X5.745Y-4.2688
X5.745Y-4.3938
X5.765Y-5.1688
X5.9028Y-5.0198
X6.005Y-4.2388
X6.04Y-4.1738
X6.0868Y-4.7338
X6.09Y-4.4388
X6.1118Y-4.8988
X6.138Y-4.3688
X6.165Y-4.2088
X6.235Y-5.0338
X6.275Y-5.3638
X6.3063Y-4.1638
X6.3198Y-4.3688
X6.3238Y-4.4768
X6.45Y-4.0238
X6.45Y-4.1488
X6.45Y-4.4088
X6.4718Y-5.2268
T2
X5.8455Y-4.0288
X5.918Y-4.1588
X5.9558Y-4.8568
X6.005Y-4.7116
X6.198Y-3.7088
X6.2538Y-4.8138
X6.325Y-4.6588
X6.365Y-4.7388
T3
X5.128Y-3.4588
X5.228Y-3.4588
X5.328Y-3.4588
X5.428Y-3.4588
X5.528Y-3.4588
X5.628Y-3.4588
X5.728Y-3.4588
X5.828Y-3.4588
X5.928Y-3.4588
X6.028Y-3.4588
X6.378Y-5.3588
X6.478Y-5.3588
X6.578Y-5.3588
X6.678Y-5.3588
X6.778Y-5.3588
X6.878Y-5.3588
X6.298Y-3.6038
X6.298Y-3.7038
X5.8555Y-3.8488
X5.8555Y-3.9488
X5.9555Y-3.8488
X5.9555Y-3.9488
X6.0555Y-3.8488
X6.0555Y-3.9488
X6.1555Y-3.8488
X6.1555Y-3.9488
X6.2555Y-3.8488
X6.2555Y-3.9488
X6.3555Y-3.8488
X6.3555Y-3.9488
X6.178Y-3.4588
X6.278Y-3.4588
X6.378Y-3.4588
X6.478Y-3.4588
X6.578Y-3.4588
X6.678Y-3.4588
X6.778Y-3.4588
X6.878Y-3.4588
X6.45Y-3.6038
X6.45Y-3.7038
X5.755Y-4.5588
X5.755Y-4.6588
X5.755Y-4.7588
X5.755Y-4.8588
X5.755Y-4.9588
X5.755Y-5.0588
X5.478Y-5.3588
X5.578Y-5.3588
X5.678Y-5.3588
X5.778Y-5.3588
X5.878Y-5.3588
X5.978Y-5.3588
X6.078Y-5.3588
X6.178Y-5.3588
X6.455Y-4.5588
X6.455Y-4.6588
X6.455Y-4.7588
X6.455Y-4.8588
X6.455Y-4.9588
X6.455Y-5.0588
T0
M30
